# xmcd CD database file
#
# Track frame offsets:
#	150
#	29163
#	72832
#	116139
#
# Disc length: 2032 seconds
#
# Revision: 0
# Processed by: cddbd v1.5.2PL0 Copyright (c) Steve Scherf et al.
# Submitted via: CDex 1.70beta3
#
DISCID=3807ee04
DTITLE=Nakayama Eiji - アヤのサンバ
DYEAR=1900
DGENRE=Jazz
TTITLE0=アヤのサンバ
TTITLE1=イエロー・リビング
TTITLE2=海の見える町
TTITLE3=遙かなる道
EXTD=
EXTT0=
EXTT1=
EXTT2=
EXTT3=
PLAYORDER=
